<svg width="782" height="609" viewBox="0 0 782 609" fill="none" xmlns="http://www.w3.org/2000/svg">
<g clip-path="url(#clip0_66_52)">
<path d="M329.212 388.641C378.573 388.641 418.588 348.82 418.588 299.698C418.588 250.576 378.573 210.755 329.212 210.755C279.851 210.755 239.836 250.576 239.836 299.698C239.836 348.82 279.851 388.641 329.212 388.641Z" fill="black"/>
<path d="M287.318 327.83C296.811 327.83 304.507 320.172 304.507 310.724C304.507 301.277 296.811 293.618 287.318 293.618C277.824 293.618 270.128 301.277 270.128 310.724C270.128 320.172 277.824 327.83 287.318 327.83Z" fill="#FCE97E"/>
<path d="M347.341 335.796C356.834 335.796 364.53 328.137 364.53 318.69C364.53 309.242 356.834 301.584 347.341 301.584C337.847 301.584 330.151 309.242 330.151 318.69C330.151 328.137 337.847 335.796 347.341 335.796Z" fill="#FCE97E"/>
<path d="M358.733 378.837C365.362 378.837 370.736 373.489 370.736 366.893C370.736 360.296 365.362 354.948 358.733 354.948C352.104 354.948 346.73 360.296 346.73 366.893C346.73 373.489 352.104 378.837 358.733 378.837Z" fill="#FCE97E"/>
<path d="M254.191 315.318C260.913 315.318 266.363 309.895 266.363 303.206C266.363 296.516 260.913 291.093 254.191 291.093C247.469 291.093 242.019 296.516 242.019 303.206C242.019 309.895 247.469 315.318 254.191 315.318Z" fill="#CDF702"/>
<path d="M362.973 350.737C366.316 350.737 369.026 348.04 369.026 344.713C369.026 341.386 366.316 338.688 362.973 338.688C359.629 338.688 356.919 341.386 356.919 344.713C356.919 348.04 359.629 350.737 362.973 350.737Z" fill="#CDF702"/>
<path d="M265.913 342.332C271.726 342.332 276.439 337.642 276.439 331.857C276.439 326.072 271.726 321.383 265.913 321.383C260.1 321.383 255.387 326.072 255.387 331.857C255.387 337.642 260.1 342.332 265.913 342.332Z" stroke="#CDF702" stroke-width="2" stroke-miterlimit="10"/>
<path d="M324.435 373.836C336.611 373.836 346.482 364.013 346.482 351.896C346.482 339.778 336.611 329.956 324.435 329.956C312.258 329.956 302.388 339.778 302.388 351.896C302.388 364.013 312.258 373.836 324.435 373.836Z" stroke="#CDF702" stroke-width="2" stroke-miterlimit="10"/>
<path d="M385.678 356.594C391.491 356.594 396.204 351.904 396.204 346.119C396.204 340.334 391.491 335.644 385.678 335.644C379.865 335.644 375.152 340.334 375.152 346.119C375.152 351.904 379.865 356.594 385.678 356.594Z" stroke="#CDF702" stroke-width="2" stroke-miterlimit="10"/>
<path d="M720.678 165.845C726.491 165.845 731.203 161.155 731.203 155.37C731.203 149.585 726.491 144.896 720.678 144.896C714.865 144.896 710.152 149.585 710.152 155.37C710.152 161.155 714.865 165.845 720.678 165.845Z" stroke="#CDF702" stroke-width="3" stroke-miterlimit="10"/>
<path d="M297.602 341.477C301.62 341.477 304.876 338.236 304.876 334.238C304.876 330.24 301.62 326.999 297.602 326.999C293.585 326.999 290.328 330.24 290.328 334.238C290.328 338.236 293.585 341.477 297.602 341.477Z" stroke="#CDF702" stroke-width="2" stroke-miterlimit="10"/>
<path d="M286.137 360.772C290.9 360.772 294.76 356.93 294.76 352.191C294.76 347.452 290.9 343.61 286.137 343.61C281.375 343.61 277.514 347.452 277.514 352.191C277.514 356.93 281.375 360.772 286.137 360.772Z" fill="#FCE97E"/>
<path d="M296.446 374.411C299.776 374.411 302.476 371.724 302.476 368.411C302.476 365.097 299.776 362.41 296.446 362.41C293.116 362.41 290.417 365.097 290.417 368.411C290.417 371.724 293.116 374.411 296.446 374.411Z" fill="#FCE97E"/>
<path d="M628.877 58.2217C639.723 58.2217 648.515 49.472 648.515 38.6786C648.515 27.8852 639.723 19.1355 628.877 19.1355C618.031 19.1355 609.239 27.8852 609.239 38.6786C609.239 49.472 618.031 58.2217 628.877 58.2217Z" fill="black"/>
<path d="M762.05 158.094C772.896 158.094 781.688 149.345 781.688 138.551C781.688 127.758 772.896 119.008 762.05 119.008C751.204 119.008 742.412 127.758 742.412 138.551C742.412 149.345 751.204 158.094 762.05 158.094Z" fill="#CDF702"/>
<path d="M416.179 122.612C420.196 122.612 423.453 119.371 423.453 115.373C423.453 111.375 420.196 108.134 416.179 108.134C412.162 108.134 408.905 111.375 408.905 115.373C408.905 119.371 412.162 122.612 416.179 122.612Z" fill="black"/>
<path d="M328.738 104.115C332.755 104.115 336.012 100.874 336.012 96.8765C336.012 92.8786 332.755 89.6377 328.738 89.6377C324.721 89.6377 321.464 92.8786 321.464 96.8765C321.464 100.874 324.721 104.115 328.738 104.115Z" fill="black"/>
<path d="M372.784 108.494C376.801 108.494 380.058 105.253 380.058 101.255C380.058 97.257 376.801 94.0161 372.784 94.0161C368.766 94.0161 365.51 97.257 365.51 101.255C365.51 105.253 368.766 108.494 372.784 108.494Z" fill="black"/>
<path d="M282.894 110.979C286.911 110.979 290.168 107.738 290.168 103.74C290.168 99.7419 286.911 96.501 282.894 96.501C278.876 96.501 275.62 99.7419 275.62 103.74C275.62 107.738 278.876 110.979 282.894 110.979Z" fill="black"/>
<path d="M241.498 126.343C245.515 126.343 248.772 123.102 248.772 119.104C248.772 115.106 245.515 111.865 241.498 111.865C237.48 111.865 234.223 115.106 234.223 119.104C234.223 123.102 237.48 126.343 241.498 126.343Z" fill="black"/>
<path d="M203.104 151.055C207.121 151.055 210.378 147.815 210.378 143.817C210.378 139.819 207.121 136.578 203.104 136.578C199.087 136.578 195.83 139.819 195.83 143.817C195.83 147.815 199.087 151.055 203.104 151.055Z" fill="black"/>
<path d="M172.145 183.286C176.162 183.286 179.419 180.045 179.419 176.048C179.419 172.05 176.162 168.809 172.145 168.809C168.128 168.809 164.871 172.05 164.871 176.048C164.871 180.045 168.128 183.286 172.145 183.286Z" fill="black"/>
<path d="M148.412 221.749C152.429 221.749 155.686 218.508 155.686 214.511C155.686 210.513 152.429 207.272 148.412 207.272C144.395 207.272 141.138 210.513 141.138 214.511C141.138 218.508 144.395 221.749 148.412 221.749Z" fill="black"/>
<path d="M134.579 263.448C138.596 263.448 141.853 260.207 141.853 256.21C141.853 252.212 138.596 248.971 134.579 248.971C130.561 248.971 127.305 252.212 127.305 256.21C127.305 260.207 130.561 263.448 134.579 263.448Z" fill="black"/>
<path d="M130.532 309.358C134.549 309.358 137.806 306.117 137.806 302.119C137.806 298.121 134.549 294.88 130.532 294.88C126.515 294.88 123.258 298.121 123.258 302.119C123.258 306.117 126.515 309.358 130.532 309.358Z" fill="black"/>
<path d="M130.636 308.455C134.654 308.455 137.91 305.214 137.91 301.216C137.91 297.218 134.654 293.977 130.636 293.977C126.619 293.977 123.362 297.218 123.362 301.216C123.362 305.214 126.619 308.455 130.636 308.455Z" fill="black"/>
<path d="M490.325 183.838L493.641 180.362" stroke="#231F20" stroke-width="5" stroke-miterlimit="10"/>
<path d="M499.831 173.898L546.253 125.368" stroke="#231F20" stroke-width="5" stroke-miterlimit="10" stroke-dasharray="11.18 11.18 11.18 11.18 11.18 11.18"/>
<path d="M549.344 122.132L608.139 60.6665" stroke="#231F20" stroke-width="5" stroke-miterlimit="10" stroke-dasharray="11.18 11.18 11.18 11.18 11.18 11.18"/>
<path d="M611.238 57.4307L614.554 53.9631" stroke="#231F20" stroke-width="5" stroke-miterlimit="10"/>
<path d="M499.686 442.324L503.09 445.712" stroke="#231F20" stroke-width="5" stroke-miterlimit="10"/>
<path d="M509.433 452.032L557.044 499.404" stroke="#231F20" stroke-width="5" stroke-miterlimit="10" stroke-dasharray="11.18 11.18 11.18 11.18 11.18 11.18"/>
<path d="M560.215 502.568L620.511 562.571" stroke="#231F20" stroke-width="5" stroke-miterlimit="10" stroke-dasharray="11.18 11.18 11.18 11.18 11.18 11.18"/>
<path d="M623.69 565.727L627.094 569.123" stroke="#231F20" stroke-width="5" stroke-miterlimit="10"/>
<path d="M531.312 349.898L536.048 350.753" stroke="#231F20" stroke-width="5" stroke-miterlimit="10"/>
<path d="M544.888 352.343L611.125 364.296" stroke="#231F20" stroke-width="5" stroke-miterlimit="10" stroke-dasharray="11.18 11.18 11.18 11.18 11.18 11.18"/>
<path d="M615.541 365.087L699.45 380.228" stroke="#231F20" stroke-width="5" stroke-miterlimit="10" stroke-dasharray="11.18 11.18 11.18 11.18 11.18 11.18"/>
<path d="M703.874 381.019L708.61 381.873" stroke="#231F20" stroke-width="5" stroke-miterlimit="10"/>
<path d="M540.561 243.05L544.904 240.973" stroke="#231F20" stroke-width="5" stroke-miterlimit="10"/>
<path d="M552.997 237.106L613.694 208.119" stroke="#231F20" stroke-width="5" stroke-miterlimit="10" stroke-dasharray="11.18 11.18 11.18 11.18 11.18 11.18"/>
<path d="M617.741 206.185L694.616 169.472" stroke="#231F20" stroke-width="5" stroke-miterlimit="10" stroke-dasharray="11.18 11.18 11.18 11.18 11.18 11.18"/>
<path d="M698.663 167.539L703.006 165.461" stroke="#231F20" stroke-width="5" stroke-miterlimit="10"/>
<path d="M129.809 310.013C133.827 310.013 137.084 306.772 137.084 302.774C137.084 298.776 133.827 295.535 129.809 295.535C125.792 295.535 122.535 298.776 122.535 302.774C122.535 306.772 125.792 310.013 129.809 310.013Z" fill="black"/>
<path d="M152.539 396.055C156.556 396.055 159.813 392.814 159.813 388.816C159.813 384.819 156.556 381.578 152.539 381.578C148.522 381.578 145.265 384.819 145.265 388.816C145.265 392.814 148.522 396.055 152.539 396.055Z" fill="black"/>
<path d="M136.666 354.94C140.683 354.94 143.94 351.699 143.94 347.701C143.94 343.703 140.683 340.462 136.666 340.462C132.649 340.462 129.392 343.703 129.392 347.701C129.392 351.699 132.649 354.94 136.666 354.94Z" fill="black"/>
<path d="M179.315 433.719C183.332 433.719 186.589 430.478 186.589 426.481C186.589 422.483 183.332 419.242 179.315 419.242C175.297 419.242 172.041 422.483 172.041 426.481C172.041 430.478 175.297 433.719 179.315 433.719Z" fill="black"/>
<path d="M211.727 463.601C215.744 463.601 219.001 460.36 219.001 456.363C219.001 452.365 215.744 449.124 211.727 449.124C207.71 449.124 204.453 452.365 204.453 456.363C204.453 460.36 207.71 463.601 211.727 463.601Z" fill="black"/>
<path d="M251.164 486.612C255.181 486.612 258.438 483.371 258.438 479.373C258.438 475.375 255.181 472.134 251.164 472.134C247.147 472.134 243.89 475.375 243.89 479.373C243.89 483.371 247.147 486.612 251.164 486.612Z" fill="black"/>
<path d="M294.022 499.635C298.039 499.635 301.296 496.394 301.296 492.397C301.296 488.399 298.039 485.158 294.022 485.158C290.004 485.158 286.748 488.399 286.748 492.397C286.748 496.394 290.004 499.635 294.022 499.635Z" fill="black"/>
<path d="M339.215 503.43C343.233 503.43 346.49 500.19 346.49 496.192C346.49 492.194 343.233 488.953 339.215 488.953C335.198 488.953 331.941 492.194 331.941 496.192C331.941 500.19 335.198 503.43 339.215 503.43Z" fill="black"/>
<path d="M382.868 496.975C386.885 496.975 390.142 493.734 390.142 489.736C390.142 485.738 386.885 482.497 382.868 482.497C378.85 482.497 375.594 485.738 375.594 489.736C375.594 493.734 378.85 496.975 382.868 496.975Z" fill="black"/>
<path d="M425.886 479.917C429.903 479.917 433.16 476.676 433.16 472.678C433.16 468.68 429.903 465.439 425.886 465.439C421.869 465.439 418.612 468.68 418.612 472.678C418.612 476.676 421.869 479.917 425.886 479.917Z" fill="black"/>
<path d="M425.027 480.236C429.044 480.236 432.301 476.995 432.301 472.997C432.301 468.999 429.044 465.759 425.027 465.759C421.01 465.759 417.753 468.999 417.753 472.997C417.753 476.995 421.01 480.236 425.027 480.236Z" fill="black"/>
<path d="M432.718 48.5223C438.629 48.5223 443.421 43.7539 443.421 37.8719C443.421 31.9898 438.629 27.2214 432.718 27.2214C426.808 27.2214 422.016 31.9898 422.016 37.8719C422.016 43.7539 426.808 48.5223 432.718 48.5223Z" fill="black"/>
<path d="M304.017 21.3009C309.928 21.3009 314.72 16.5325 314.72 10.6504C314.72 4.76836 309.928 0 304.017 0C298.107 0 293.315 4.76836 293.315 10.6504C293.315 16.5325 298.107 21.3009 304.017 21.3009Z" fill="black"/>
<path d="M368.842 27.7486C374.752 27.7486 379.544 22.9803 379.544 17.0982C379.544 11.2161 374.752 6.44775 368.842 6.44775C362.931 6.44775 358.139 11.2161 358.139 17.0982C358.139 22.9803 362.931 27.7486 368.842 27.7486Z" fill="black"/>
<path d="M236.544 31.4C242.455 31.4 247.246 26.6316 247.246 20.7495C247.246 14.8675 242.455 10.0991 236.544 10.0991C230.633 10.0991 225.841 14.8675 225.841 20.7495C225.841 26.6316 230.633 31.4 236.544 31.4Z" fill="black"/>
<path d="M175.622 54.0191C181.532 54.0191 186.324 49.2508 186.324 43.3687C186.324 37.4866 181.532 32.7183 175.622 32.7183C169.711 32.7183 164.919 37.4866 164.919 43.3687C164.919 49.2508 169.711 54.0191 175.622 54.0191Z" fill="black"/>
<path d="M119.115 90.3809C125.026 90.3809 129.817 85.6126 129.817 79.7305C129.817 73.8484 125.026 69.0801 119.115 69.0801C113.204 69.0801 108.413 73.8484 108.413 79.7305C108.413 85.6126 113.204 90.3809 119.115 90.3809Z" fill="black"/>
<path d="M73.5439 137.824C79.4546 137.824 84.2462 133.056 84.2462 127.174C84.2462 121.292 79.4546 116.523 73.5439 116.523C67.6332 116.523 62.8416 121.292 62.8416 127.174C62.8416 133.056 67.6332 137.824 73.5439 137.824Z" fill="black"/>
<path d="M38.6268 194.432C44.5376 194.432 49.3292 189.664 49.3292 183.782C49.3292 177.9 44.5376 173.131 38.6268 173.131C32.7161 173.131 27.9245 177.9 27.9245 183.782C27.9245 189.664 32.7161 194.432 38.6268 194.432Z" fill="black"/>
<path d="M18.2579 255.81C24.1686 255.81 28.9602 251.042 28.9602 245.16C28.9602 239.278 24.1686 234.509 18.2579 234.509C12.3471 234.509 7.55554 239.278 7.55554 245.16C7.55554 251.042 12.3471 255.81 18.2579 255.81Z" fill="black"/>
<path d="M12.3086 323.372C18.2193 323.372 23.0109 318.604 23.0109 312.721C23.0109 306.839 18.2193 302.071 12.3086 302.071C6.39786 302.071 1.60626 306.839 1.60626 312.721C1.60626 318.604 6.39786 323.372 12.3086 323.372Z" fill="black"/>
<path d="M12.4531 322.038C18.3639 322.038 23.1555 317.269 23.1555 311.387C23.1555 305.505 18.3639 300.737 12.4531 300.737C6.54239 300.737 1.75079 305.505 1.75079 311.387C1.75079 317.269 6.54239 322.038 12.4531 322.038Z" fill="black"/>
<path d="M11.2408 324.347C17.1515 324.347 21.9431 319.578 21.9431 313.696C21.9431 307.814 17.1515 303.046 11.2408 303.046C5.33005 303.046 0.538452 307.814 0.538452 313.696C0.538452 319.578 5.33005 324.347 11.2408 324.347Z" fill="black"/>
<path d="M44.6886 450.977C50.5993 450.977 55.3909 446.209 55.3909 440.327C55.3909 434.445 50.5993 429.677 44.6886 429.677C38.7779 429.677 33.9863 434.445 33.9863 440.327C33.9863 446.209 38.7779 450.977 44.6886 450.977Z" fill="black"/>
<path d="M21.3249 390.454C27.2356 390.454 32.0272 385.686 32.0272 379.804C32.0272 373.922 27.2356 369.154 21.3249 369.154C15.4142 369.154 10.6226 373.922 10.6226 379.804C10.6226 385.686 15.4142 390.454 21.3249 390.454Z" fill="black"/>
<path d="M84.1017 506.411C90.0125 506.411 94.8041 501.642 94.8041 495.76C94.8041 489.878 90.0125 485.11 84.1017 485.11C78.191 485.11 73.3994 489.878 73.3994 495.76C73.3994 501.642 78.191 506.411 84.1017 506.411Z" fill="black"/>
<path d="M131.801 550.379C137.711 550.379 142.503 545.61 142.503 539.728C142.503 533.846 137.711 529.078 131.801 529.078C125.89 529.078 121.098 533.846 121.098 539.728C121.098 545.61 125.89 550.379 131.801 550.379Z" fill="black"/>
<path d="M189.849 584.256C195.759 584.256 200.551 579.487 200.551 573.605C200.551 567.723 195.759 562.955 189.849 562.955C183.938 562.955 179.146 567.723 179.146 573.605C179.146 579.487 183.938 584.256 189.849 584.256Z" fill="black"/>
<path d="M252.922 603.423C258.833 603.423 263.625 598.655 263.625 592.773C263.625 586.891 258.833 582.122 252.922 582.122C247.012 582.122 242.22 586.891 242.22 592.773C242.22 598.655 247.012 603.423 252.922 603.423Z" fill="black"/>
<path d="M319.441 609C325.351 609 330.143 604.232 330.143 598.35C330.143 592.468 325.351 587.699 319.441 587.699C313.53 587.699 308.738 592.468 308.738 598.35C308.738 604.232 313.53 609 319.441 609Z" fill="black"/>
<path d="M383.687 599.5C389.597 599.5 394.389 594.732 394.389 588.85C394.389 582.968 389.597 578.199 383.687 578.199C377.776 578.199 372.984 582.968 372.984 588.85C372.984 594.732 377.776 599.5 383.687 599.5Z" fill="black"/>
<path d="M446.993 574.404C452.904 574.404 457.696 569.636 457.696 563.754C457.696 557.872 452.904 553.103 446.993 553.103C441.083 553.103 436.291 557.872 436.291 563.754C436.291 569.636 441.083 574.404 446.993 574.404Z" fill="black"/>
<path d="M445.733 574.876C451.644 574.876 456.435 570.107 456.435 564.225C456.435 558.343 451.644 553.575 445.733 553.575C439.822 553.575 435.031 558.343 435.031 564.225C435.031 570.107 439.822 574.876 445.733 574.876Z" fill="black"/>
<path d="M557.509 133.254C566.187 133.254 573.222 126.254 573.222 117.618C573.222 108.982 566.187 101.982 557.509 101.982C548.832 101.982 541.797 108.982 541.797 117.618C541.797 126.254 548.832 133.254 557.509 133.254Z" fill="white" stroke="#231F20" stroke-width="3" stroke-miterlimit="10"/>
<path d="M570.773 532.993C581.619 532.993 590.411 524.243 590.411 513.45C590.411 502.656 581.619 493.907 570.773 493.907C559.927 493.907 551.135 502.656 551.135 513.45C551.135 524.243 559.927 532.993 570.773 532.993Z" fill="#FCE97E"/>
<path d="M541.372 493.875C548.085 493.875 553.527 488.459 553.527 481.778C553.527 475.097 548.085 469.682 541.372 469.682C534.658 469.682 529.216 475.097 529.216 481.778C529.216 488.459 534.658 493.875 541.372 493.875Z" fill="#FCE97E"/>
<path d="M616.352 374.659C622.165 374.659 626.878 369.969 626.878 364.184C626.878 358.399 622.165 353.709 616.352 353.709C610.539 353.709 605.826 358.399 605.826 364.184C605.826 369.969 610.539 374.659 616.352 374.659Z" fill="black"/>
</g>
<defs>
<clipPath id="clip0_66_52">
<rect width="781.15" height="609" fill="white" transform="translate(0.538452)"/>
</clipPath>
</defs>
</svg>
